<?xml version="1.0" encoding="utf-8"?>
<!-- Generator: Adobe Illustrator 27.5.0, SVG Export Plug-In . SVG Version: 6.00 Build 0)  -->
<svg version="1.1" xmlns="http://www.w3.org/2000/svg" xmlns:xlink="http://www.w3.org/1999/xlink" x="0px" y="0px"
	 viewBox="0 0 5600 4400" style="enable-background:new 0 0 5600 4400;" xml:space="preserve">
<g id="Layer_1">
	<g>
		<path style="fill:#D2564D;" d="M1168.215,2665.902h3263.569c13.317-46.731,24.574-94.323,33.89-142.607H1134.325
			C1143.641,2571.579,1154.898,2619.171,1168.215,2665.902z"/>
		<path style="fill:#A73C6B;" d="M1589.977,3389.046h2420.046c22.908-23.31,45.164-47.257,66.706-71.853H1523.271
			C1544.811,3341.789,1567.067,3365.736,1589.977,3389.046z"/>
		<path style="fill:#883178;" d="M1911.481,3645.474h1777.037c21.507-13.249,42.722-26.923,63.578-41.091H1847.904
			C1868.76,3618.551,1889.974,3632.226,1911.481,3645.474z"/>
		<path style="fill:#B84362;" d="M1403.439,3163.38h2793.123c24.407-35.314,47.521-71.582,69.249-108.768H1334.19
			C1355.917,3091.798,1379.031,3128.066,1403.439,3163.38z"/>
		<path style="fill:#D56144;" d="M1117.423,2418.703h3365.155c7.202-55.957,11.656-112.77,13.268-170.296h-3391.69
			C1105.766,2305.933,1110.22,2362.746,1117.423,2418.703z"/>
		<path style="fill:#C8495B;" d="M1260.252,2913.105h3079.496c18.812-40.552,36.119-81.941,51.745-124.153H1208.505
			C1224.131,2831.164,1241.438,2872.553,1260.252,2913.105z"/>
		<path style="fill:#D8693E;" d="M1117.649,1979.676c-8.032,61.926-12.66,124.912-13.825,188.748h3392.352
			c-1.166-63.835-5.793-126.822-13.825-188.748H1117.649z"/>
		<path style="fill:#D88439;" d="M2800,503.425c-847.398,0-1549.638,621.284-1676.195,1433.184h3352.39
			C4349.636,1124.708,3647.398,503.425,2800,503.425z"/>
		<path style="fill:#7D2E7C;" d="M2800,3896.575c119.236,0,235.576-12.362,347.868-35.764h-695.737
			C2564.422,3884.213,2680.762,3896.575,2800,3896.575z"/>
	</g>
</g>
</svg>